# xmcd
#
# Track frame offsets: 
#        150
#        35705
#        63010
#        76913
#        99115
#        127463
#        149158
#        178003
#        208768
#        230620
#        239303
#        251365
#        290080
#
# Disc length: 4177 seconds
#
# Revision: 1
# Processed by: cddbd v1.5.2PL0 Copyright (c) Steve Scherf et al.
# Submitted via: ExactAudioCopyFreeDBPlugin 1.0
#
DISCID=c3104f0d
DTITLE=村松健 - KEN plays KEN〜春の野を行く〜
DYEAR=2000
DGENRE=New Age
TTITLE0=浜木綿
TTITLE1=悲しいほどのムラサキ
TTITLE2=月とお話し
TTITLE3=金魚のまどろみ
TTITLE4=陽だまり
TTITLE5=春の野を行く
TTITLE6=森のピアノ
TTITLE7=出逢いと別れ
TTITLE8=見送る人
TTITLE9=失われたみち
TTITLE10=バックウォーター
TTITLE11=瞳の中の夕なぎ
TTITLE12=そぼ降る夕べ
EXTD=YEAR: 2000
EXTT0=
EXTT1=
EXTT2=
EXTT3=
EXTT4=
EXTT5=
EXTT6=
EXTT7=
EXTT8=
EXTT9=
EXTT10=
EXTT11=
EXTT12=
PLAYORDER=
